<svg width="39" height="38" viewBox="0 0 39 38" fill="none" xmlns="http://www.w3.org/2000/svg">
<path d="M37.4444 14.2501L30.7417 14.2503L24.599 0.957684C24.1991 0.08784 23.2393 -0.257277 22.4641 0.199168C21.687 0.651457 21.3861 1.72733 21.7899 2.5994L27.1739 14.2443H11.8274L17.2114 2.5994C17.6132 1.73089 17.3163 0.654871 16.5378 0.202582C15.7594 -0.252008 14.8028 0.0912541 14.4003 0.961246L8.25767 14.2538L1.55556 14.2501C0.972625 14.2501 0.5 14.7818 0.5 15.3708V17.7458C0.5 18.4016 0.972625 18.8665 1.55556 18.8665H3.08017L6.0984 34.1482C6.52788 36.4564 8.23854 38.0001 10.2177 38.0001H28.7757C30.6955 38.0001 32.4682 36.4541 32.8976 34.2803L35.9159 18.9986H37.4444C38.0275 18.9986 38.5 18.4669 38.5 17.8779V15.5029C38.5 14.7845 38.025 14.2501 37.4444 14.2501ZM13.1667 32.0626C13.1667 32.7183 12.6939 33.1833 12.1111 33.1833C11.5284 33.1833 11.0556 32.6515 11.0556 32.0626V22.5626C11.0556 21.907 11.5284 21.4419 12.1111 21.4419C12.6939 21.4419 13.1667 21.9738 13.1667 22.5626V32.0626ZM20.5556 32.0626C20.5556 32.7183 20.0828 33.1833 19.5 33.1833C18.9173 33.1833 18.4444 32.6515 18.4444 32.0626V22.5626C18.4444 21.907 18.9173 21.4419 19.5 21.4419C20.0828 21.4419 20.5556 21.9738 20.5556 22.5626V32.0626ZM27.9444 32.0626C27.9444 32.7183 27.4717 33.1833 26.8889 33.1833C26.3062 33.1833 25.8333 32.6515 25.8333 32.0626V22.5626C25.8333 21.907 26.3062 21.4419 26.8889 21.4419C27.4717 21.4419 27.9444 21.9738 27.9444 22.5626V32.0626Z" fill="#FF9D43"/>
</svg>
