<svg width="204" height="38" viewBox="0 0 204 38" fill="none" xmlns="http://www.w3.org/2000/svg">
<path d="M38 19.1155C38 28.6557 31.0428 36.5647 21.9608 38V24.6781H26.3768L27.2175 19.1665H21.9608V15.5903C21.9608 14.0817 22.6955 12.613 25.0483 12.613H27.4376V7.92019C27.4376 7.92019 25.2684 7.54743 23.1958 7.54743C18.867 7.54743 16.0392 10.187 16.0392 14.9642V19.1649H11.2274V24.6765H16.0392V37.9984C6.95875 36.5616 0 28.6541 0 19.1155C0 8.55896 8.50725 0 19 0C29.4928 0 38 8.55737 38 19.1155Z" fill="white"/>
<path d="M102 3.42317C107.073 3.42317 107.675 3.44217 109.678 3.534C111.749 3.629 113.881 4.10083 115.39 5.60975C116.913 7.13292 117.371 9.24508 117.466 11.3224C117.558 13.3253 117.577 13.927 117.577 19C117.577 24.073 117.558 24.6747 117.466 26.6776C117.373 28.7375 116.89 30.8908 115.39 32.3903C113.867 33.9134 111.757 34.371 109.678 34.466C107.675 34.5578 107.073 34.5768 102 34.5768C96.927 34.5768 96.3253 34.5578 94.3224 34.466C92.2783 34.3726 90.0965 33.8786 88.6098 32.3903C87.0945 30.875 86.629 28.7423 86.534 26.6776C86.4422 24.6747 86.4232 24.073 86.4232 19C86.4232 13.927 86.4422 13.3253 86.534 11.3224C86.6274 9.27042 87.1151 7.10442 88.6098 5.60975C90.1298 4.08975 92.2498 3.629 94.3224 3.534C96.3253 3.44217 96.927 3.42317 102 3.42317ZM102 0C96.8399 0 96.1923 0.0221667 94.1657 0.114C91.2286 0.248583 88.3121 1.06558 86.1888 3.18883C84.0577 5.32 83.2486 8.23017 83.114 11.1657C83.0222 13.1923 83 13.8399 83 19C83 24.1601 83.0222 24.8077 83.114 26.8343C83.2486 29.7683 84.0687 32.6927 86.1888 34.8112C88.3184 36.9408 91.2333 37.7514 94.1657 37.886C96.1923 37.9778 96.8399 38 102 38C107.16 38 107.808 37.9778 109.834 37.886C112.77 37.7514 115.69 36.9328 117.811 34.8112C119.944 32.6784 120.751 29.7698 120.886 26.8343C120.978 24.8077 121 24.1601 121 19C121 13.8399 120.978 13.1923 120.886 11.1657C120.751 8.22858 119.933 5.3105 117.811 3.18883C115.685 1.06242 112.762 0.247 109.834 0.114C107.808 0.0221667 107.16 0 102 0Z" fill="white"/>
<path d="M102 9.24341C96.6119 9.24341 92.2435 13.6118 92.2435 18.9999C92.2435 24.388 96.6119 28.7564 102 28.7564C107.388 28.7564 111.757 24.388 111.757 18.9999C111.757 13.6118 107.388 9.24341 102 9.24341ZM102 25.3332C98.5024 25.3332 95.6667 22.4975 95.6667 18.9999C95.6667 15.5023 98.5024 12.6666 102 12.6666C105.498 12.6666 108.333 15.5023 108.333 18.9999C108.333 22.4975 105.498 25.3332 102 25.3332Z" fill="white"/>
<path d="M112.143 11.1371C113.402 11.1371 114.423 10.1164 114.423 8.85715C114.423 7.59794 113.402 6.57715 112.143 6.57715C110.884 6.57715 109.863 7.59794 109.863 8.85715C109.863 10.1164 110.884 11.1371 112.143 11.1371Z" fill="white"/>
<path d="M185 0C174.506 0 166 8.50581 166 19C166 29.4942 174.506 38 185 38C195.494 38 204 29.4942 204 19C204 8.50581 195.494 0 185 0ZM179.212 28.964H174.583V14.0843H179.212V28.964ZM176.892 12.0407C175.412 12.0407 174.208 10.8366 174.208 9.35639C174.208 7.87616 175.412 6.67209 176.892 6.67209C178.372 6.67209 179.576 7.87616 179.576 9.35639C179.576 10.8366 178.372 12.0407 176.892 12.0407ZM196.522 28.964H191.904V21.7285C191.904 20.0052 191.871 17.7849 189.496 17.7849C187.088 17.7849 186.723 19.6628 186.723 21.607V28.975H182.106V14.0843H186.547V16.1169H186.602C187.508 14.5703 189.187 13.6424 190.976 13.7087C195.66 13.7087 196.522 16.7907 196.522 20.8006V28.964Z" fill="white"/>
</svg>
